<svg width="81" height="80" viewBox="0 0 81 80" fill="none" xmlns="http://www.w3.org/2000/svg">
<path fill-rule="evenodd" clip-rule="evenodd" d="M39.0838 15.039C39.8516 13.6953 41.789 13.6953 42.5568 15.039L71.1104 65.0078C71.8723 66.3412 70.9096 68.0001 69.3739 68.0001H12.2666C10.731 68.0001 9.76825 66.3412 10.5301 65.0078L39.0838 15.039ZM40.788 25.9747C42.1688 25.9747 43.288 27.094 43.288 28.4747V50.8747C43.288 52.2554 42.1688 53.3747 40.788 53.3747C39.4073 53.3747 38.288 52.2554 38.288 50.8747V28.4747C38.288 27.094 39.4073 25.9747 40.788 25.9747ZM43.288 58.0746C43.288 56.6939 42.1688 55.5746 40.788 55.5746C39.4073 55.5746 38.288 56.6939 38.288 58.0746V59.6746C38.288 61.0553 39.4073 62.1746 40.788 62.1746C42.1688 62.1746 43.288 61.0553 43.288 59.6746V58.0746Z" fill="#C2CCDE"/>
</svg>
