<svg width="56" height="56" viewBox="0 0 56 56" fill="none" xmlns="http://www.w3.org/2000/svg">
<path fill-rule="evenodd" clip-rule="evenodd" d="M28 56C43.464 56 56 43.464 56 28C56 12.536 43.464 0 28 0C12.536 0 0 12.536 0 28C0 43.464 12.536 56 28 56ZM44.8805 20.3737C46.0465 19.1966 46.0465 17.2882 44.8805 16.1111C43.7145 14.934 41.824 14.934 40.6579 16.1111L23.0769 33.8588L15.342 26.0506C14.176 24.8735 12.2855 24.8735 11.1195 26.0506C9.95343 27.2277 9.95343 29.1361 11.1195 30.3132L19.5581 38.8318C21.5015 40.7937 24.6523 40.7937 26.5957 38.8318L44.8805 20.3737Z" fill="#D5F2EA"/>
</svg>
