<svg width="58" height="58" viewBox="0 0 58 58" fill="none" xmlns="http://www.w3.org/2000/svg">
<path d="M29 1L32.135 1.17606L35.2306 1.70202L38.2478 2.57127L41.1487 3.77287L43.8969 5.29172L46.4577 7.10872L48.799 9.20101L50.8913 11.5423L52.7083 14.1031L54.2271 16.8513L55.4287 19.7522L56.298 22.7694L56.8239 25.865L57 29L56.8239 32.135L56.298 35.2306L55.4287 38.2478L54.2271 41.1487L52.7083 43.8969L50.8913 46.4577L48.799 48.799L46.4577 50.8913L43.8969 52.7083L41.1487 54.2271L38.2478 55.4287L35.2306 56.298L32.135 56.8239L29 57L25.865 56.8239L22.7694 56.298L19.7522 55.4287L16.8513 54.2271L14.1031 52.7083L11.5423 50.8913L9.20101 48.799L7.10872 46.4577L5.29172 43.8969L3.77287 41.1487L2.57127 38.2478L1.70202 35.2306L1.17606 32.135L1 29L1.17606 25.865L1.70202 22.7694L2.57127 19.7522L3.77287 16.8513L5.29172 14.1031L7.10872 11.5423L9.20101 9.20101L11.5423 7.10872L14.1031 5.29172L16.8513 3.77287L19.7522 2.57127L22.7694 1.70202L25.865 1.17606L29 1Z" fill="#0D3680" fill-opacity="0.25"/>
<path d="M14.2307 29.1819L22.6694 37.7005C23.4467 38.4853 24.7071 38.4853 25.4844 37.7005L43.7692 19.2424M29 1L32.135 1.17606L35.2306 1.70202L38.2478 2.57127L41.1487 3.77287L43.8969 5.29172L46.4577 7.10872L48.799 9.20101L50.8913 11.5423L52.7083 14.1031L54.2271 16.8513L55.4287 19.7522L56.298 22.7694L56.8239 25.865L57 29L56.8239 32.135L56.298 35.2306L55.4287 38.2478L54.2271 41.1487L52.7083 43.8969L50.8913 46.4577L48.799 48.799L46.4577 50.8913L43.8969 52.7083L41.1487 54.2271L38.2478 55.4287L35.2306 56.298L32.135 56.8239L29 57L25.865 56.8239L22.7694 56.298L19.7522 55.4287L16.8513 54.2271L14.1031 52.7083L11.5423 50.8913L9.20101 48.799L7.10872 46.4577L5.29172 43.8969L3.77287 41.1487L2.57127 38.2478L1.70202 35.2306L1.17606 32.135L1 29L1.17606 25.865L1.70202 22.7694L2.57127 19.7522L3.77287 16.8513L5.29172 14.1031L7.10872 11.5423L9.20101 9.20101L11.5423 7.10872L14.1031 5.29172L16.8513 3.77287L19.7522 2.57127L22.7694 1.70202L25.865 1.17606L29 1Z" stroke="#2353FF" stroke-linecap="round" stroke-linejoin="round"/>
</svg>
