<svg width="81" height="80" viewBox="0 0 81 80" fill="none" xmlns="http://www.w3.org/2000/svg">
<path fill-rule="evenodd" clip-rule="evenodd" d="M40.3931 68C55.857 68 68.3931 55.464 68.3931 40C68.3931 24.536 55.857 12 40.3931 12C24.9291 12 12.3931 24.536 12.3931 40C12.3931 55.464 24.9291 68 40.3931 68ZM57.2736 32.3737C58.4396 31.1966 58.4396 29.2882 57.2736 28.1111C56.1075 26.934 54.217 26.934 53.051 28.1111L35.47 45.8588L27.7351 38.0506C26.5691 36.8735 24.6786 36.8735 23.5125 38.0506C22.3465 39.2277 22.3465 41.1361 23.5125 42.3132L31.9512 50.8318C33.8945 52.7937 37.0454 52.7937 38.9888 50.8318L57.2736 32.3737Z" fill="#C2CCDE"/>
</svg>
